<svg t="1636035093732" class="icon" viewBox="0 0 1024 1024" version="1.1" xmlns="http://www.w3.org/2000/svg" p-id="18996" xmlns:xlink="http://www.w3.org/1999/xlink" width="200" height="200"><defs><style type="text/css"></style></defs><path d="M893.324 853.628C974.566 763.008 1024 643.284 1024 512 1024 229.23 794.77 0 512 0S0 229.23 0 512c0 131.284 49.434 251.008 130.676 341.628z" fill="#FF4155" p-id="18997"></path><path d="M512 512m-340 0a340 340 0 1 0 680 0 340 340 0 1 0-680 0Z" fill="#E80054" p-id="18998"></path><path d="M225.56 936.362h572.88a514.932 514.932 0 0 0 94.884-82.734C873.908 796.878 852.096 743.978 834 728c-44-38.85-234.61-70.238-234.61-70.238h-174.78S234 689.15 190 728c-18.096 15.978-39.908 68.878-59.324 125.628a514.932 514.932 0 0 0 94.884 82.734z" fill="#2A428C" p-id="18999"></path><path d="M411.914 638.17h200.17v239.636H411.914z" fill="#FFDD40" p-id="19000"></path><path d="M424.61 433.624v224.14c0 34.072 39.126 61.692 87.39 61.692s87.39-27.62 87.39-61.692v-224.14z" fill="#FCAD6D" p-id="19001"></path><path d="M512 479.192c-147.728 0-256.464 62.914-302.158 94.862-11.6 8.11-11.384 25.35 0.454 33.108 42.982 28.17 130.052 93.31 151.834 170.922h62.478V545.692h174.78v232.392h62.48c21.784-77.612 108.854-142.752 151.834-170.922 11.838-7.758 12.054-24.998 0.454-33.108-45.692-31.948-154.428-94.862-302.156-94.862z" fill="#4B6BB2" p-id="19002"></path><path d="M700.314 514.26c-51.19-19.54-114.936-35.068-188.314-35.068s-137.124 15.528-188.314 35.068c34.872 46.582 83.766 132.584 100.924 263.824V545.692h174.78v232.392c17.158-131.24 66.052-217.242 100.924-263.824z" fill="#3C58A0" p-id="19003"></path><path d="M424.61 433.624v224.14c93.864 0 146.494-72.038 146.494-72.038l28.286-152.1h-174.78zM650.15 367.336s17.794-43.324 49.512-33.266-0.766 103.94-62.664 109.856zM373.85 367.336s-17.794-43.324-49.512-33.266 0.766 103.94 62.664 109.856z" fill="#FD995B" p-id="19004"></path><path d="M674.498 346.444c0 119.66-72.754 259.998-162.498 259.998s-162.498-140.338-162.498-259.998S422.254 140.744 512 140.744s162.498 86.038 162.498 205.7z" fill="#F9BA8F" p-id="19005"></path><path d="M405.382 346.444c0-106.958 58.128-187.042 134.558-202.842A137.868 137.868 0 0 0 512 140.746c-89.746 0-162.498 86.038-162.498 205.698S422.256 606.442 512 606.442c9.528 0 18.862-1.596 27.94-4.568-76.43-25.012-134.558-148.474-134.558-255.43z" fill="#FCAD6D" p-id="19006"></path><path d="M622.756 294.762c-56.096-7.552-79.11 11.866-110.756 11.866-31.644 0-54.658-19.418-110.756-11.866-56.096 7.552-67.964 40.274-56.456 88.46s67.244 68.682 100.326 57.894 54.298-15.154 66.884-15.154 33.802 4.366 66.884 15.154 88.82-9.71 100.326-57.894c11.51-48.186-0.356-80.908-56.452-88.46z" fill="#1C2E7A" p-id="19007"></path><path d="M406.064 383.222c-11.046-46.26-0.526-78.254 49.966-87.42-14.666-2.724-31.996-4.108-54.786-1.04-56.096 7.552-67.964 40.274-56.456 88.46s67.244 68.682 100.326 57.894a654.678 654.678 0 0 1 10.732-3.398c-22.668-8.9-43.282-27.278-49.782-54.496z" fill="#112360" p-id="19008"></path><path d="M565.282 26.666c-30.296 0-38.344 55.452-53.282 55.452s-22.986-55.452-53.282-55.452S324.428 189.584 326.148 322h371.704c1.72-132.416-102.274-295.334-132.57-295.334z" fill="#3C58A0" p-id="19009"></path><path d="M688.882 245.704c-189.698 13.036-311.31-114.66-278.82-171.234C370.5 132.656 325.006 234.046 326.148 322h371.704c0.322-24.786-3.06-50.642-8.97-76.296z" fill="#2A428C" p-id="19010"></path><path d="M778.406 300.346a25.076 25.076 0 0 1-17.968 24.036c-39.67 11.758-139.876 37.83-248.438 37.83s-208.768-26.072-248.438-37.83a25.074 25.074 0 0 1-17.968-24.036c0-13.84 11.22-25.06 25.06-25.06h482.692c13.84 0 25.06 11.22 25.06 25.06z" fill="#4B6BB2" p-id="19011"></path><path d="M468.538 318.748c0-24.004 19.458-43.462 43.462-43.462H270.654c-13.84 0-25.06 11.22-25.06 25.06a25.076 25.076 0 0 0 17.968 24.036c39.67 11.758 139.876 37.83 248.438 37.83-24.004-0.002-43.462-19.46-43.462-43.464z" fill="#3C58A0" p-id="19012"></path><path d="M781.174 795.158c-50.916-13.316-153.684-35.704-269.176-35.704S293.74 781.84 242.826 795.158c-19.416 5.078-32.056 23.746-29.566 43.66l12.192 97.544C307.224 991.686 405.838 1024 512 1024s204.776-32.314 286.548-87.638l12.192-97.544c2.49-19.914-10.15-38.582-29.566-43.66z" fill="#FFFFFF" p-id="19013"></path><path d="M424.61 763.504c-78.354 7.06-144.202 21.826-181.786 31.656-19.416 5.078-32.056 23.746-29.566 43.66l12.192 97.544C307.224 991.686 405.838 1024 512 1024s204.776-32.314 286.548-87.638c-391.322 103.072-373.938-172.858-373.938-172.858z" fill="#D3DCFB" p-id="19014"></path><path d="M512 926.404m-48.598 0a48.598 48.598 0 1 0 97.196 0 48.598 48.598 0 1 0-97.196 0Z" fill="#BEC8F7" p-id="19015"></path></svg>